<svg width="52" height="18" viewBox="0 0 52 18" fill="none" xmlns="http://www.w3.org/2000/svg">
<path d="M12.0409 6.83386C12.4755 7.51091 12.6913 8.28379 12.6639 9.06533C12.6366 9.84686 12.3675 10.606 11.8869 11.2574C11.4063 11.9089 10.733 12.4266 9.94284 12.752C9.15308 13.0778 8.27791 13.1984 7.41602 13.1004" stroke="#E3E5E8" stroke-linecap="round"/>
<path d="M3.95828 11.0336C3.51741 10.3468 3.30186 9.56163 3.33664 8.76908C3.37098 7.97628 3.65438 7.20849 4.15396 6.55478C4.65312 5.90113 5.34769 5.38801 6.15733 5.07476C6.96743 4.76187 7.85934 4.66159 8.73007 4.7855" stroke="#E3E5E8" stroke-linecap="round"/>
<path d="M6.66699 2.33337L9.33369 4.73332L6.66699 7.13326" stroke="#E3E5E8" stroke-miterlimit="10"/>
<path d="M9.33369 15.5334L6.66699 13.1335L9.33369 10.7335" stroke="#E3E5E8" stroke-miterlimit="10"/>
<path d="M27.1764 12.074C27.2524 12.074 27.3184 12.104 27.3744 12.164L27.9324 12.77C27.5804 13.194 27.1484 13.522 26.6364 13.754C26.1244 13.982 25.5124 14.096 24.8004 14.096C24.1684 14.096 23.5964 13.988 23.0844 13.772C22.5764 13.552 22.1424 13.248 21.7824 12.86C21.4224 12.468 21.1444 12.002 20.9484 11.462C20.7564 10.922 20.6604 10.328 20.6604 9.68C20.6604 9.032 20.7624 8.438 20.9664 7.898C21.1744 7.354 21.4644 6.888 21.8364 6.5C22.2124 6.108 22.6604 5.804 23.1804 5.588C23.7044 5.372 24.2804 5.264 24.9084 5.264C25.5324 5.264 26.0824 5.366 26.5584 5.57C27.0384 5.77 27.4544 6.038 27.8064 6.374L27.3444 7.028C27.3124 7.072 27.2744 7.11 27.2304 7.142C27.1864 7.174 27.1264 7.19 27.0504 7.19C26.9704 7.19 26.8784 7.154 26.7744 7.082C26.6744 7.006 26.5444 6.924 26.3844 6.836C26.2284 6.744 26.0304 6.662 25.7904 6.59C25.5544 6.514 25.2584 6.476 24.9024 6.476C24.4904 6.476 24.1124 6.548 23.7684 6.692C23.4244 6.836 23.1284 7.046 22.8804 7.322C22.6324 7.598 22.4384 7.934 22.2984 8.33C22.1624 8.726 22.0944 9.176 22.0944 9.68C22.0944 10.188 22.1664 10.642 22.3104 11.042C22.4544 11.438 22.6524 11.774 22.9044 12.05C23.1564 12.322 23.4524 12.53 23.7924 12.674C24.1324 12.818 24.4984 12.89 24.8904 12.89C25.1304 12.89 25.3444 12.878 25.5324 12.854C25.7244 12.826 25.9004 12.784 26.0604 12.728C26.2204 12.668 26.3704 12.594 26.5104 12.506C26.6544 12.418 26.7964 12.31 26.9364 12.182C27.0164 12.11 27.0964 12.074 27.1764 12.074ZM30.2491 7.88V14H28.9591V7.88H30.2491ZM30.4651 6.032C30.4651 6.148 30.4411 6.258 30.3931 6.362C30.3491 6.466 30.2871 6.558 30.2071 6.638C30.1271 6.714 30.0331 6.776 29.9251 6.824C29.8211 6.868 29.7091 6.89 29.5891 6.89C29.4731 6.89 29.3631 6.868 29.2591 6.824C29.1591 6.776 29.0711 6.714 28.9951 6.638C28.9191 6.558 28.8571 6.466 28.8091 6.362C28.7651 6.258 28.7431 6.148 28.7431 6.032C28.7431 5.912 28.7651 5.8 28.8091 5.696C28.8571 5.592 28.9191 5.502 28.9951 5.426C29.0711 5.346 29.1591 5.284 29.2591 5.24C29.3631 5.192 29.4731 5.168 29.5891 5.168C29.7091 5.168 29.8211 5.192 29.9251 5.24C30.0331 5.284 30.1271 5.346 30.2071 5.426C30.2871 5.502 30.3491 5.592 30.3931 5.696C30.4411 5.8 30.4651 5.912 30.4651 6.032ZM36.196 9.08C36.156 9.132 36.118 9.172 36.082 9.2C36.046 9.228 35.994 9.242 35.926 9.242C35.858 9.242 35.786 9.218 35.71 9.17C35.638 9.122 35.55 9.07 35.446 9.014C35.346 8.954 35.224 8.9 35.08 8.852C34.936 8.804 34.756 8.78 34.54 8.78C34.26 8.78 34.014 8.83 33.802 8.93C33.594 9.03 33.418 9.174 33.274 9.362C33.134 9.546 33.028 9.772 32.956 10.04C32.888 10.304 32.854 10.602 32.854 10.934C32.854 11.278 32.892 11.584 32.968 11.852C33.044 12.12 33.152 12.346 33.292 12.53C33.436 12.714 33.608 12.854 33.808 12.95C34.012 13.046 34.24 13.094 34.492 13.094C34.74 13.094 34.942 13.064 35.098 13.004C35.254 12.944 35.384 12.878 35.488 12.806C35.592 12.734 35.68 12.668 35.752 12.608C35.828 12.548 35.908 12.518 35.992 12.518C36.096 12.518 36.176 12.558 36.232 12.638L36.598 13.112C36.45 13.292 36.286 13.444 36.106 13.568C35.926 13.692 35.736 13.794 35.536 13.874C35.336 13.95 35.128 14.004 34.912 14.036C34.696 14.072 34.478 14.09 34.258 14.09C33.878 14.09 33.522 14.02 33.19 13.88C32.862 13.736 32.574 13.53 32.326 13.262C32.082 12.99 31.888 12.66 31.744 12.272C31.604 11.88 31.534 11.434 31.534 10.934C31.534 10.482 31.598 10.064 31.726 9.68C31.854 9.292 32.04 8.958 32.284 8.678C32.532 8.398 32.838 8.18 33.202 8.024C33.566 7.864 33.986 7.784 34.462 7.784C34.906 7.784 35.296 7.856 35.632 8C35.972 8.144 36.274 8.348 36.538 8.612L36.196 9.08ZM38.9496 5.12V14H37.6596V5.12H38.9496ZM43.1879 7.784C43.6399 7.784 44.0479 7.858 44.4119 8.006C44.7799 8.154 45.0919 8.364 45.3479 8.636C45.6079 8.908 45.8079 9.238 45.9479 9.626C46.0879 10.014 46.1579 10.45 46.1579 10.934C46.1579 11.418 46.0879 11.854 45.9479 12.242C45.8079 12.63 45.6079 12.962 45.3479 13.238C45.0919 13.51 44.7799 13.72 44.4119 13.868C44.0479 14.016 43.6399 14.09 43.1879 14.09C42.7319 14.09 42.3199 14.016 41.9519 13.868C41.5879 13.72 41.2759 13.51 41.0159 13.238C40.7559 12.962 40.5559 12.63 40.4159 12.242C40.2759 11.854 40.2059 11.418 40.2059 10.934C40.2059 10.45 40.2759 10.014 40.4159 9.626C40.5559 9.238 40.7559 8.908 41.0159 8.636C41.2759 8.364 41.5879 8.154 41.9519 8.006C42.3199 7.858 42.7319 7.784 43.1879 7.784ZM43.1879 13.082C43.7399 13.082 44.1499 12.898 44.4179 12.53C44.6899 12.158 44.8259 11.628 44.8259 10.94C44.8259 10.252 44.6899 9.722 44.4179 9.35C44.1499 8.974 43.7399 8.786 43.1879 8.786C42.6279 8.786 42.2119 8.974 41.9399 9.35C41.6679 9.722 41.5319 10.252 41.5319 10.94C41.5319 11.628 41.6679 12.158 41.9399 12.53C42.2119 12.898 42.6279 13.082 43.1879 13.082ZM51.0513 8.99C51.0193 9.046 50.9833 9.086 50.9433 9.11C50.9033 9.134 50.8533 9.146 50.7933 9.146C50.7253 9.146 50.6513 9.126 50.5713 9.086C50.4913 9.042 50.3973 8.994 50.2893 8.942C50.1813 8.89 50.0533 8.844 49.9053 8.804C49.7613 8.76 49.5913 8.738 49.3953 8.738C49.2353 8.738 49.0893 8.758 48.9573 8.798C48.8293 8.834 48.7193 8.888 48.6273 8.96C48.5393 9.028 48.4713 9.11 48.4233 9.206C48.3753 9.298 48.3513 9.398 48.3513 9.506C48.3513 9.65 48.3953 9.77 48.4833 9.866C48.5713 9.962 48.6873 10.046 48.8313 10.118C48.9753 10.186 49.1393 10.248 49.3233 10.304C49.5073 10.36 49.6953 10.42 49.8873 10.484C50.0793 10.548 50.2673 10.622 50.4513 10.706C50.6353 10.79 50.7993 10.894 50.9433 11.018C51.0873 11.138 51.2033 11.286 51.2913 11.462C51.3793 11.634 51.4233 11.844 51.4233 12.092C51.4233 12.38 51.3713 12.646 51.2673 12.89C51.1633 13.134 51.0113 13.346 50.8113 13.526C50.6113 13.706 50.3613 13.846 50.0613 13.946C49.7653 14.046 49.4253 14.096 49.0413 14.096C48.8293 14.096 48.6233 14.076 48.4233 14.036C48.2273 14 48.0393 13.95 47.8593 13.886C47.6833 13.818 47.5173 13.738 47.3613 13.646C47.2093 13.554 47.0733 13.454 46.9533 13.346L47.2533 12.854C47.2893 12.794 47.3333 12.748 47.3853 12.716C47.4413 12.68 47.5093 12.662 47.5893 12.662C47.6733 12.662 47.7553 12.69 47.8353 12.746C47.9193 12.798 48.0153 12.856 48.1233 12.92C48.2353 12.984 48.3693 13.044 48.5253 13.1C48.6813 13.152 48.8753 13.178 49.1073 13.178C49.2993 13.178 49.4653 13.156 49.6053 13.112C49.7453 13.064 49.8613 13 49.9533 12.92C50.0453 12.84 50.1133 12.75 50.1573 12.65C50.2013 12.546 50.2233 12.436 50.2233 12.32C50.2233 12.164 50.1793 12.036 50.0913 11.936C50.0033 11.836 49.8853 11.75 49.7373 11.678C49.5933 11.606 49.4273 11.542 49.2393 11.486C49.0553 11.43 48.8673 11.37 48.6753 11.306C48.4833 11.242 48.2933 11.168 48.1053 11.084C47.9213 11 47.7553 10.894 47.6073 10.766C47.4633 10.634 47.3473 10.476 47.2593 10.292C47.1713 10.104 47.1273 9.876 47.1273 9.608C47.1273 9.364 47.1753 9.132 47.2713 8.912C47.3713 8.692 47.5153 8.498 47.7033 8.33C47.8953 8.162 48.1293 8.03 48.4053 7.934C48.6853 7.834 49.0073 7.784 49.3713 7.784C49.7833 7.784 50.1573 7.85 50.4933 7.982C50.8293 8.114 51.1113 8.294 51.3393 8.522L51.0513 8.99Z" fill="#E3E5E8"/>
</svg>
