<svg width="52" height="18" viewBox="0 0 52 18" fill="none" xmlns="http://www.w3.org/2000/svg">
<path d="M4.89146 8.63628C4.56087 8.30569 4.02488 8.30569 3.69429 8.63628C3.3637 8.96687 3.3637 9.50286 3.69429 9.83345L7.5814 13.7206C7.91198 14.0511 8.44798 14.0511 8.77856 13.7206C9.10915 13.39 9.10916 12.854 8.77857 12.5234L4.89146 8.63628Z" stroke="#E3E5E8" stroke-miterlimit="10"/>
<path d="M4.46275 10.6026C4.13216 10.272 3.59616 10.272 3.26558 10.6026C2.93499 10.9332 2.93499 11.4692 3.26558 11.7998L5.73382 14.268C6.06441 14.5986 6.60039 14.5986 6.93098 14.268C7.26157 13.9374 7.26158 13.4014 6.93099 13.0708L4.46275 10.6026Z" stroke="#E3E5E8" stroke-miterlimit="10"/>
<path d="M11.4064 9.89644C11.737 10.227 12.273 10.227 12.6036 9.89643C12.9342 9.56585 12.9342 9.02986 12.6036 8.69927L8.71646 4.81216C8.38587 4.48157 7.84988 4.48157 7.51929 4.81216C7.1887 5.14275 7.1887 5.67874 7.51929 6.00933L11.4064 9.89644Z" stroke="#E3E5E8" stroke-miterlimit="10"/>
<path d="M10.0614 8.55105L8.86426 7.35388L6.23672 9.98142L7.4339 11.1786L10.0614 8.55105Z" stroke="#E3E5E8" stroke-miterlimit="10"/>
<path d="M11.8341 7.93062C12.1647 8.26121 12.7007 8.26121 13.0313 7.93062C13.3619 7.60003 13.3619 7.06403 13.0313 6.73345L10.5631 4.26521C10.2325 3.93462 9.69647 3.93462 9.36588 4.26521C9.0353 4.5958 9.0353 5.13179 9.36589 5.46238L11.8341 7.93062Z" stroke="#E3E5E8" stroke-miterlimit="10"/>
<path d="M25.5889 6.836C25.5449 6.908 25.4989 6.962 25.4509 6.998C25.4029 7.03 25.3429 7.046 25.2709 7.046C25.1949 7.046 25.1089 7.014 25.0129 6.95C24.9209 6.886 24.8049 6.816 24.6649 6.74C24.5289 6.66 24.3669 6.588 24.1789 6.524C23.9909 6.456 23.7669 6.422 23.5069 6.422C23.2669 6.422 23.0549 6.452 22.8709 6.512C22.6909 6.572 22.5389 6.656 22.4149 6.764C22.2909 6.872 22.1969 7 22.1329 7.148C22.0729 7.292 22.0429 7.45 22.0429 7.622C22.0429 7.842 22.1009 8.026 22.2169 8.174C22.3329 8.318 22.4849 8.442 22.6729 8.546C22.8649 8.65 23.0829 8.742 23.3269 8.822C23.5709 8.898 23.8189 8.98 24.0709 9.068C24.3269 9.156 24.5769 9.256 24.8209 9.368C25.0649 9.48 25.2809 9.622 25.4689 9.794C25.6609 9.966 25.8149 10.176 25.9309 10.424C26.0469 10.672 26.1049 10.974 26.1049 11.33C26.1049 11.714 26.0389 12.074 25.9069 12.41C25.7749 12.746 25.5829 13.04 25.3309 13.292C25.0829 13.54 24.7749 13.736 24.4069 13.88C24.0429 14.024 23.6269 14.096 23.1589 14.096C22.8829 14.096 22.6129 14.068 22.3489 14.012C22.0889 13.96 21.8389 13.886 21.5989 13.79C21.3629 13.69 21.1409 13.57 20.9329 13.43C20.7249 13.29 20.5389 13.134 20.3749 12.962L20.7829 12.29C20.8189 12.234 20.8649 12.19 20.9209 12.158C20.9769 12.126 21.0389 12.11 21.1069 12.11C21.1989 12.11 21.3009 12.154 21.4129 12.242C21.5249 12.326 21.6589 12.42 21.8149 12.524C21.9749 12.624 22.1669 12.718 22.3909 12.806C22.6149 12.89 22.8829 12.932 23.1949 12.932C23.7029 12.932 24.0949 12.808 24.3709 12.56C24.6509 12.312 24.7909 11.97 24.7909 11.534C24.7909 11.29 24.7329 11.092 24.6169 10.94C24.5009 10.784 24.3469 10.654 24.1549 10.55C23.9669 10.446 23.7509 10.358 23.5069 10.286C23.2629 10.214 23.0149 10.138 22.7629 10.058C22.5109 9.974 22.2629 9.878 22.0189 9.77C21.7749 9.658 21.5569 9.514 21.3649 9.338C21.1769 9.158 21.0249 8.938 20.9089 8.678C20.7929 8.414 20.7349 8.086 20.7349 7.694C20.7349 7.382 20.7949 7.08 20.9149 6.788C21.0389 6.496 21.2169 6.238 21.4489 6.014C21.6849 5.786 21.9749 5.604 22.3189 5.468C22.6629 5.332 23.0549 5.264 23.4949 5.264C23.9909 5.264 24.4449 5.342 24.8569 5.498C25.2729 5.654 25.6309 5.876 25.9309 6.164L25.5889 6.836ZM31.3723 10.25C31.3723 10.034 31.3403 9.834 31.2763 9.65C31.2163 9.462 31.1263 9.3 31.0063 9.164C30.8863 9.024 30.7363 8.916 30.5563 8.84C30.3803 8.76 30.1763 8.72 29.9443 8.72C29.4763 8.72 29.1083 8.854 28.8403 9.122C28.5723 9.39 28.4023 9.766 28.3303 10.25H31.3723ZM28.2943 11.042C28.3103 11.39 28.3643 11.692 28.4563 11.948C28.5483 12.2 28.6703 12.41 28.8223 12.578C28.9783 12.746 29.1623 12.872 29.3743 12.956C29.5903 13.036 29.8303 13.076 30.0943 13.076C30.3463 13.076 30.5643 13.048 30.7483 12.992C30.9323 12.932 31.0923 12.868 31.2283 12.8C31.3643 12.728 31.4803 12.664 31.5763 12.608C31.6723 12.548 31.7603 12.518 31.8403 12.518C31.9443 12.518 32.0243 12.558 32.0803 12.638L32.4463 13.112C32.2943 13.292 32.1223 13.444 31.9303 13.568C31.7383 13.692 31.5343 13.794 31.3183 13.874C31.1023 13.95 30.8803 14.004 30.6523 14.036C30.4243 14.072 30.2023 14.09 29.9863 14.09C29.5623 14.09 29.1683 14.02 28.8043 13.88C28.4443 13.736 28.1303 13.526 27.8623 13.25C27.5983 12.974 27.3903 12.632 27.2383 12.224C27.0903 11.816 27.0163 11.346 27.0163 10.814C27.0163 10.39 27.0823 9.994 27.2143 9.626C27.3503 9.258 27.5423 8.938 27.7903 8.666C28.0423 8.394 28.3463 8.18 28.7023 8.024C29.0623 7.864 29.4683 7.784 29.9203 7.784C30.2963 7.784 30.6443 7.846 30.9643 7.97C31.2843 8.09 31.5603 8.268 31.7923 8.504C32.0243 8.74 32.2043 9.03 32.3323 9.374C32.4643 9.714 32.5303 10.102 32.5303 10.538C32.5303 10.738 32.5083 10.872 32.4643 10.94C32.4203 11.008 32.3403 11.042 32.2243 11.042H28.2943ZM31.8703 5.264L30.4243 6.818C30.3603 6.89 30.2963 6.94 30.2323 6.968C30.1723 6.996 30.0923 7.01 29.9923 7.01H29.2243L30.0943 5.558C30.1503 5.458 30.2143 5.384 30.2863 5.336C30.3623 5.288 30.4723 5.264 30.6163 5.264H31.8703ZM34.9513 9.014C35.1433 8.626 35.3753 8.322 35.6473 8.102C35.9193 7.878 36.2453 7.766 36.6253 7.766C36.7573 7.766 36.8813 7.782 36.9973 7.814C37.1133 7.842 37.2173 7.886 37.3093 7.946L37.2193 8.918C37.2033 8.986 37.1773 9.034 37.1413 9.062C37.1093 9.086 37.0653 9.098 37.0093 9.098C36.9493 9.098 36.8633 9.088 36.7513 9.068C36.6393 9.044 36.5213 9.032 36.3973 9.032C36.2173 9.032 36.0573 9.058 35.9173 9.11C35.7813 9.162 35.6573 9.238 35.5453 9.338C35.4373 9.438 35.3413 9.56 35.2573 9.704C35.1733 9.848 35.0953 10.012 35.0233 10.196V14H33.7333V7.88H34.4833C34.6193 7.88 34.7133 7.906 34.7653 7.958C34.8173 8.006 34.8533 8.092 34.8733 8.216L34.9513 9.014ZM39.507 7.88V14H38.217V7.88H39.507ZM39.723 6.032C39.723 6.148 39.699 6.258 39.651 6.362C39.607 6.466 39.545 6.558 39.465 6.638C39.385 6.714 39.291 6.776 39.183 6.824C39.079 6.868 38.967 6.89 38.847 6.89C38.731 6.89 38.621 6.868 38.517 6.824C38.417 6.776 38.329 6.714 38.253 6.638C38.177 6.558 38.115 6.466 38.067 6.362C38.023 6.258 38.001 6.148 38.001 6.032C38.001 5.912 38.023 5.8 38.067 5.696C38.115 5.592 38.177 5.502 38.253 5.426C38.329 5.346 38.417 5.284 38.517 5.24C38.621 5.192 38.731 5.168 38.847 5.168C38.967 5.168 39.079 5.192 39.183 5.24C39.291 5.284 39.385 5.346 39.465 5.426C39.545 5.502 39.607 5.592 39.651 5.696C39.699 5.8 39.723 5.912 39.723 6.032ZM45.1418 10.25C45.1418 10.034 45.1098 9.834 45.0458 9.65C44.9858 9.462 44.8958 9.3 44.7758 9.164C44.6558 9.024 44.5058 8.916 44.3258 8.84C44.1498 8.76 43.9458 8.72 43.7138 8.72C43.2458 8.72 42.8778 8.854 42.6098 9.122C42.3418 9.39 42.1718 9.766 42.0998 10.25H45.1418ZM42.0638 11.042C42.0798 11.39 42.1338 11.692 42.2258 11.948C42.3178 12.2 42.4398 12.41 42.5918 12.578C42.7478 12.746 42.9318 12.872 43.1438 12.956C43.3598 13.036 43.5998 13.076 43.8638 13.076C44.1158 13.076 44.3338 13.048 44.5178 12.992C44.7018 12.932 44.8618 12.868 44.9978 12.8C45.1338 12.728 45.2498 12.664 45.3458 12.608C45.4418 12.548 45.5298 12.518 45.6098 12.518C45.7138 12.518 45.7938 12.558 45.8498 12.638L46.2158 13.112C46.0638 13.292 45.8918 13.444 45.6998 13.568C45.5078 13.692 45.3038 13.794 45.0878 13.874C44.8718 13.95 44.6498 14.004 44.4218 14.036C44.1938 14.072 43.9718 14.09 43.7558 14.09C43.3318 14.09 42.9378 14.02 42.5738 13.88C42.2138 13.736 41.8998 13.526 41.6318 13.25C41.3678 12.974 41.1598 12.632 41.0078 12.224C40.8598 11.816 40.7858 11.346 40.7858 10.814C40.7858 10.39 40.8518 9.994 40.9838 9.626C41.1198 9.258 41.3118 8.938 41.5598 8.666C41.8118 8.394 42.1158 8.18 42.4718 8.024C42.8318 7.864 43.2378 7.784 43.6898 7.784C44.0658 7.784 44.4138 7.846 44.7338 7.97C45.0538 8.09 45.3298 8.268 45.5618 8.504C45.7938 8.74 45.9738 9.03 46.1018 9.374C46.2338 9.714 46.2998 10.102 46.2998 10.538C46.2998 10.738 46.2778 10.872 46.2338 10.94C46.1898 11.008 46.1098 11.042 45.9938 11.042H42.0638ZM51.1568 8.99C51.1248 9.046 51.0888 9.086 51.0488 9.11C51.0088 9.134 50.9588 9.146 50.8988 9.146C50.8308 9.146 50.7568 9.126 50.6768 9.086C50.5968 9.042 50.5028 8.994 50.3948 8.942C50.2868 8.89 50.1588 8.844 50.0108 8.804C49.8668 8.76 49.6968 8.738 49.5008 8.738C49.3408 8.738 49.1948 8.758 49.0628 8.798C48.9348 8.834 48.8248 8.888 48.7328 8.96C48.6448 9.028 48.5768 9.11 48.5288 9.206C48.4808 9.298 48.4568 9.398 48.4568 9.506C48.4568 9.65 48.5008 9.77 48.5888 9.866C48.6768 9.962 48.7928 10.046 48.9368 10.118C49.0808 10.186 49.2448 10.248 49.4288 10.304C49.6128 10.36 49.8008 10.42 49.9928 10.484C50.1848 10.548 50.3728 10.622 50.5568 10.706C50.7408 10.79 50.9048 10.894 51.0488 11.018C51.1928 11.138 51.3088 11.286 51.3968 11.462C51.4848 11.634 51.5288 11.844 51.5288 12.092C51.5288 12.38 51.4768 12.646 51.3728 12.89C51.2688 13.134 51.1168 13.346 50.9168 13.526C50.7168 13.706 50.4668 13.846 50.1668 13.946C49.8708 14.046 49.5308 14.096 49.1468 14.096C48.9348 14.096 48.7288 14.076 48.5288 14.036C48.3328 14 48.1448 13.95 47.9648 13.886C47.7888 13.818 47.6228 13.738 47.4668 13.646C47.3148 13.554 47.1788 13.454 47.0588 13.346L47.3588 12.854C47.3948 12.794 47.4388 12.748 47.4908 12.716C47.5468 12.68 47.6148 12.662 47.6948 12.662C47.7788 12.662 47.8608 12.69 47.9408 12.746C48.0248 12.798 48.1208 12.856 48.2288 12.92C48.3408 12.984 48.4748 13.044 48.6308 13.1C48.7868 13.152 48.9808 13.178 49.2128 13.178C49.4048 13.178 49.5708 13.156 49.7108 13.112C49.8508 13.064 49.9668 13 50.0588 12.92C50.1508 12.84 50.2188 12.75 50.2628 12.65C50.3068 12.546 50.3288 12.436 50.3288 12.32C50.3288 12.164 50.2848 12.036 50.1968 11.936C50.1088 11.836 49.9908 11.75 49.8428 11.678C49.6988 11.606 49.5328 11.542 49.3448 11.486C49.1608 11.43 48.9728 11.37 48.7808 11.306C48.5888 11.242 48.3988 11.168 48.2108 11.084C48.0268 11 47.8608 10.894 47.7128 10.766C47.5688 10.634 47.4528 10.476 47.3648 10.292C47.2768 10.104 47.2328 9.876 47.2328 9.608C47.2328 9.364 47.2808 9.132 47.3768 8.912C47.4768 8.692 47.6208 8.498 47.8088 8.33C48.0008 8.162 48.2348 8.03 48.5108 7.934C48.7908 7.834 49.1128 7.784 49.4768 7.784C49.8888 7.784 50.2628 7.85 50.5988 7.982C50.9348 8.114 51.2168 8.294 51.4448 8.522L51.1568 8.99Z" fill="#E3E5E8"/>
</svg>
