<svg width="84" height="18" viewBox="0 0 84 18" fill="none" xmlns="http://www.w3.org/2000/svg">
<path fill-rule="evenodd" clip-rule="evenodd" d="M2.73307 8.99998C2.73307 6.09128 5.09104 3.73332 7.99974 3.73332C10.9084 3.73332 13.2664 6.09128 13.2664 8.99998C13.2664 11.9087 10.9084 14.2667 7.99974 14.2667C5.09104 14.2667 2.73307 11.9087 2.73307 8.99998ZM7.99974 3.06665C4.72285 3.06665 2.06641 5.72309 2.06641 8.99998C2.06641 12.2769 4.72285 14.9333 7.99974 14.9333C11.2766 14.9333 13.9331 12.2769 13.9331 8.99998C13.9331 5.72309 11.2766 3.06665 7.99974 3.06665ZM8.33307 5.97928H7.66641V9.3556L9.72728 11.4165L10.1987 10.9451L8.33307 9.07946V5.97928Z" fill="#E3E5E8"/>
<path d="M27.4486 6.53H24.7546V14H23.3566V6.53H20.6566V5.36H27.4486V6.53ZM30.9719 10.25C30.9719 10.034 30.9399 9.834 30.8759 9.65C30.8159 9.462 30.7259 9.3 30.6059 9.164C30.4859 9.024 30.3359 8.916 30.1559 8.84C29.9799 8.76 29.7759 8.72 29.5439 8.72C29.0759 8.72 28.7079 8.854 28.4399 9.122C28.1719 9.39 28.0019 9.766 27.9299 10.25H30.9719ZM27.8939 11.042C27.9099 11.39 27.9639 11.692 28.0559 11.948C28.1479 12.2 28.2699 12.41 28.4219 12.578C28.5779 12.746 28.7619 12.872 28.9739 12.956C29.1899 13.036 29.4299 13.076 29.6939 13.076C29.9459 13.076 30.1639 13.048 30.3479 12.992C30.5319 12.932 30.6919 12.868 30.8279 12.8C30.9639 12.728 31.0799 12.664 31.1759 12.608C31.2719 12.548 31.3599 12.518 31.4399 12.518C31.5439 12.518 31.6239 12.558 31.6799 12.638L32.0459 13.112C31.8939 13.292 31.7219 13.444 31.5299 13.568C31.3379 13.692 31.1339 13.794 30.9179 13.874C30.7019 13.95 30.4799 14.004 30.2519 14.036C30.0239 14.072 29.8019 14.09 29.5859 14.09C29.1619 14.09 28.7679 14.02 28.4039 13.88C28.0439 13.736 27.7299 13.526 27.4619 13.25C27.1979 12.974 26.9899 12.632 26.8379 12.224C26.6899 11.816 26.6159 11.346 26.6159 10.814C26.6159 10.39 26.6819 9.994 26.8139 9.626C26.9499 9.258 27.1419 8.938 27.3899 8.666C27.6419 8.394 27.9459 8.18 28.3019 8.024C28.6619 7.864 29.0679 7.784 29.5199 7.784C29.8959 7.784 30.2439 7.846 30.5639 7.97C30.8839 8.09 31.1599 8.268 31.3919 8.504C31.6239 8.74 31.8039 9.03 31.9319 9.374C32.0639 9.714 32.1299 10.102 32.1299 10.538C32.1299 10.738 32.1079 10.872 32.0639 10.94C32.0199 11.008 31.9399 11.042 31.8239 11.042H27.8939ZM33.3329 14V7.88H34.1129C34.2889 7.88 34.4009 7.962 34.4489 8.126L34.5329 8.66C34.6449 8.532 34.7609 8.416 34.8809 8.312C35.0009 8.204 35.1289 8.112 35.2649 8.036C35.4049 7.956 35.5529 7.894 35.7089 7.85C35.8689 7.806 36.0409 7.784 36.2249 7.784C36.4209 7.784 36.6009 7.812 36.7649 7.868C36.9289 7.924 37.0729 8.004 37.1969 8.108C37.3249 8.212 37.4349 8.338 37.5269 8.486C37.6189 8.634 37.6949 8.8 37.7549 8.984C37.8469 8.772 37.9629 8.59 38.1029 8.438C38.2429 8.286 38.3989 8.162 38.5709 8.066C38.7429 7.97 38.9249 7.9 39.1169 7.856C39.3129 7.808 39.5109 7.784 39.7109 7.784C40.0389 7.784 40.3309 7.836 40.5869 7.94C40.8469 8.044 41.0649 8.196 41.2409 8.396C41.4209 8.592 41.5569 8.834 41.6489 9.122C41.7409 9.41 41.7869 9.738 41.7869 10.106V14H40.4969V10.106C40.4969 9.674 40.4029 9.35 40.2149 9.134C40.0309 8.914 39.7569 8.804 39.3929 8.804C39.2289 8.804 39.0749 8.832 38.9309 8.888C38.7869 8.944 38.6609 9.026 38.5529 9.134C38.4449 9.242 38.3589 9.378 38.2949 9.542C38.2349 9.702 38.2049 9.89 38.2049 10.106V14H36.9149V10.106C36.9149 9.658 36.8249 9.33 36.6449 9.122C36.4649 8.91 36.2009 8.804 35.8529 8.804C35.6129 8.804 35.3909 8.866 35.1869 8.99C34.9829 9.11 34.7949 9.276 34.6229 9.488V14H33.3329ZM44.5838 12.464C44.7638 12.696 44.9598 12.86 45.1718 12.956C45.3878 13.048 45.6258 13.094 45.8858 13.094C46.3898 13.094 46.7818 12.91 47.0618 12.542C47.3458 12.174 47.4878 11.626 47.4878 10.898C47.4878 10.522 47.4558 10.202 47.3918 9.938C47.3278 9.67 47.2358 9.452 47.1158 9.284C46.9958 9.116 46.8498 8.994 46.6778 8.918C46.5058 8.842 46.3118 8.804 46.0958 8.804C45.7678 8.804 45.4838 8.876 45.2438 9.02C45.0078 9.16 44.7878 9.362 44.5838 9.626V12.464ZM44.5178 8.768C44.7738 8.468 45.0638 8.226 45.3878 8.042C45.7158 7.858 46.0958 7.766 46.5278 7.766C46.8718 7.766 47.1838 7.836 47.4638 7.976C47.7438 8.112 47.9838 8.312 48.1838 8.576C48.3838 8.84 48.5378 9.168 48.6458 9.56C48.7578 9.948 48.8138 10.394 48.8138 10.898C48.8138 11.35 48.7518 11.772 48.6278 12.164C48.5078 12.552 48.3338 12.89 48.1058 13.178C47.8778 13.462 47.6018 13.686 47.2778 13.85C46.9538 14.01 46.5878 14.09 46.1798 14.09C45.8198 14.09 45.5138 14.032 45.2618 13.916C45.0138 13.8 44.7878 13.64 44.5838 13.436V16.034H43.2938V7.88H44.0738C44.2498 7.88 44.3618 7.962 44.4098 8.126L44.5178 8.768ZM52.7133 7.784C53.1653 7.784 53.5733 7.858 53.9373 8.006C54.3053 8.154 54.6173 8.364 54.8733 8.636C55.1333 8.908 55.3333 9.238 55.4733 9.626C55.6133 10.014 55.6833 10.45 55.6833 10.934C55.6833 11.418 55.6133 11.854 55.4733 12.242C55.3333 12.63 55.1333 12.962 54.8733 13.238C54.6173 13.51 54.3053 13.72 53.9373 13.868C53.5733 14.016 53.1653 14.09 52.7133 14.09C52.2573 14.09 51.8453 14.016 51.4773 13.868C51.1133 13.72 50.8013 13.51 50.5413 13.238C50.2813 12.962 50.0813 12.63 49.9413 12.242C49.8013 11.854 49.7313 11.418 49.7313 10.934C49.7313 10.45 49.8013 10.014 49.9413 9.626C50.0813 9.238 50.2813 8.908 50.5413 8.636C50.8013 8.364 51.1133 8.154 51.4773 8.006C51.8453 7.858 52.2573 7.784 52.7133 7.784ZM52.7133 13.082C53.2653 13.082 53.6753 12.898 53.9433 12.53C54.2153 12.158 54.3513 11.628 54.3513 10.94C54.3513 10.252 54.2153 9.722 53.9433 9.35C53.6753 8.974 53.2653 8.786 52.7133 8.786C52.1533 8.786 51.7373 8.974 51.4653 9.35C51.1933 9.722 51.0573 10.252 51.0573 10.94C51.0573 11.628 51.1933 12.158 51.4653 12.53C51.7373 12.898 52.1533 13.082 52.7133 13.082ZM61.873 14.096C61.365 14.096 60.973 13.954 60.697 13.67C60.425 13.382 60.289 12.978 60.289 12.458V8.894H59.617C59.545 8.894 59.483 8.872 59.431 8.828C59.379 8.78 59.353 8.71 59.353 8.618V8.096L60.343 7.952L60.625 6.182C60.645 6.114 60.679 6.06 60.727 6.02C60.775 5.976 60.839 5.954 60.919 5.954H61.579V7.964H63.277V8.894H61.579V12.368C61.579 12.588 61.633 12.756 61.741 12.872C61.849 12.988 61.993 13.046 62.173 13.046C62.273 13.046 62.359 13.034 62.431 13.01C62.503 12.982 62.565 12.954 62.617 12.926C62.669 12.894 62.713 12.866 62.749 12.842C62.789 12.814 62.827 12.8 62.863 12.8C62.935 12.8 62.993 12.84 63.037 12.92L63.421 13.55C63.221 13.726 62.985 13.862 62.713 13.958C62.441 14.05 62.161 14.096 61.873 14.096ZM66.8929 7.784C67.3449 7.784 67.7529 7.858 68.1169 8.006C68.4849 8.154 68.7969 8.364 69.0529 8.636C69.3129 8.908 69.5129 9.238 69.6529 9.626C69.7929 10.014 69.8629 10.45 69.8629 10.934C69.8629 11.418 69.7929 11.854 69.6529 12.242C69.5129 12.63 69.3129 12.962 69.0529 13.238C68.7969 13.51 68.4849 13.72 68.1169 13.868C67.7529 14.016 67.3449 14.09 66.8929 14.09C66.4369 14.09 66.0249 14.016 65.6569 13.868C65.2929 13.72 64.9809 13.51 64.7209 13.238C64.4609 12.962 64.2609 12.63 64.1209 12.242C63.9809 11.854 63.9109 11.418 63.9109 10.934C63.9109 10.45 63.9809 10.014 64.1209 9.626C64.2609 9.238 64.4609 8.908 64.7209 8.636C64.9809 8.364 65.2929 8.154 65.6569 8.006C66.0249 7.858 66.4369 7.784 66.8929 7.784ZM66.8929 13.082C67.4449 13.082 67.8549 12.898 68.1229 12.53C68.3949 12.158 68.5309 11.628 68.5309 10.94C68.5309 10.252 68.3949 9.722 68.1229 9.35C67.8549 8.974 67.4449 8.786 66.8929 8.786C66.3329 8.786 65.9169 8.974 65.6449 9.35C65.3729 9.722 65.2369 10.252 65.2369 10.94C65.2369 11.628 65.3729 12.158 65.6449 12.53C65.9169 12.898 66.3329 13.082 66.8929 13.082ZM72.9472 14.096C72.4392 14.096 72.0472 13.954 71.7712 13.67C71.4992 13.382 71.3632 12.978 71.3632 12.458V8.894H70.6912C70.6192 8.894 70.5572 8.872 70.5052 8.828C70.4532 8.78 70.4272 8.71 70.4272 8.618V8.096L71.4172 7.952L71.6992 6.182C71.7192 6.114 71.7532 6.06 71.8012 6.02C71.8492 5.976 71.9132 5.954 71.9932 5.954H72.6532V7.964H74.3512V8.894H72.6532V12.368C72.6532 12.588 72.7072 12.756 72.8152 12.872C72.9232 12.988 73.0672 13.046 73.2472 13.046C73.3472 13.046 73.4332 13.034 73.5052 13.01C73.5772 12.982 73.6392 12.954 73.6912 12.926C73.7432 12.894 73.7872 12.866 73.8232 12.842C73.8632 12.814 73.9012 12.8 73.9372 12.8C74.0092 12.8 74.0672 12.84 74.1112 12.92L74.4952 13.55C74.2952 13.726 74.0592 13.862 73.7872 13.958C73.5152 14.05 73.2352 14.096 72.9472 14.096ZM78.638 11.324C78.178 11.34 77.79 11.378 77.474 11.438C77.158 11.494 76.902 11.568 76.706 11.66C76.51 11.748 76.368 11.854 76.28 11.978C76.196 12.102 76.154 12.238 76.154 12.386C76.154 12.53 76.176 12.654 76.22 12.758C76.268 12.858 76.332 12.942 76.412 13.01C76.496 13.074 76.592 13.122 76.7 13.154C76.812 13.182 76.934 13.196 77.066 13.196C77.402 13.196 77.69 13.134 77.93 13.01C78.174 12.882 78.41 12.698 78.638 12.458V11.324ZM75.218 8.732C75.91 8.088 76.734 7.766 77.69 7.766C78.042 7.766 78.354 7.824 78.626 7.94C78.902 8.052 79.132 8.212 79.316 8.42C79.504 8.628 79.646 8.876 79.742 9.164C79.842 9.448 79.892 9.764 79.892 10.112V14H79.316C79.192 14 79.098 13.982 79.034 13.946C78.97 13.906 78.916 13.828 78.872 13.712L78.746 13.214C78.59 13.354 78.436 13.48 78.284 13.592C78.132 13.7 77.974 13.792 77.81 13.868C77.65 13.944 77.476 14 77.288 14.036C77.104 14.076 76.9 14.096 76.676 14.096C76.428 14.096 76.196 14.062 75.98 13.994C75.768 13.926 75.584 13.824 75.428 13.688C75.272 13.548 75.148 13.376 75.056 13.172C74.968 12.968 74.924 12.728 74.924 12.452C74.924 12.216 74.986 11.986 75.11 11.762C75.238 11.538 75.446 11.338 75.734 11.162C76.026 10.982 76.408 10.834 76.88 10.718C77.356 10.602 77.942 10.536 78.638 10.52V10.112C78.638 9.672 78.544 9.344 78.356 9.128C78.168 8.912 77.892 8.804 77.528 8.804C77.28 8.804 77.072 8.836 76.904 8.9C76.736 8.96 76.59 9.026 76.466 9.098C76.342 9.17 76.232 9.238 76.136 9.302C76.04 9.362 75.938 9.392 75.83 9.392C75.742 9.392 75.666 9.37 75.602 9.326C75.542 9.278 75.492 9.22 75.452 9.152L75.218 8.732ZM82.7172 5.12V14H81.4272V5.12H82.7172Z" fill="#E3E5E8"/>
</svg>
